<svg width="18" height="18" viewBox="0 0 18 18" fill="none" xmlns="http://www.w3.org/2000/svg">
<path fill-rule="evenodd" clip-rule="evenodd" d="M15.7845 11.0777L17.4117 2.94175C17.6915 1.5423 16.4577 0.308463 15.0583 0.588351L6.92233 2.21554C4.54716 2.69057 2.69057 4.54716 2.21554 6.92233L0.588352 15.0583C0.308464 16.4577 1.5423 17.6915 2.94175 17.4117L11.0777 15.7845C13.4528 15.3094 15.3094 13.4528 15.7845 11.0777ZM11.0001 8.99957C11.0001 10.1041 10.1046 10.9996 9.00006 10.9996C7.89549 10.9996 7.00006 10.1041 7.00006 8.99957C7.00006 7.895 7.89549 6.99957 9.00006 6.99957C10.1046 6.99957 11.0001 7.895 11.0001 8.99957ZM13.0001 8.99957C13.0001 11.2087 11.2092 12.9996 9.00006 12.9996C6.79092 12.9996 5.00006 11.2087 5.00006 8.99957C5.00006 6.79043 6.79092 4.99957 9.00006 4.99957C11.2092 4.99957 13.0001 6.79043 13.0001 8.99957Z" fill="#42553B"/>
</svg>
